<?xml version="1.0" standalone="no"?>
<!DOCTYPE svg PUBLIC "-//W3C//DTD SVG 20010904//EN"
 "http://www.w3.org/TR/2001/REC-SVG-20010904/DTD/svg10.dtd">
<svg version="1.0" xmlns="http://www.w3.org/2000/svg"
 width="331.000000pt" height="392.000000pt" viewBox="0 0 331.000000 392.000000"
 preserveAspectRatio="xMidYMid meet">

<g transform="translate(0.000000,392.000000) scale(0.100000,-0.100000)"
fill="#C90E00" stroke="currentColor">
<path d="M1315 3759 c-288 -18 -594 -63 -865 -125 -236 -55 -280 -76 -280
-131 0 -25 88 -233 108 -255 11 -14 12 -18 2 -18 -7 0 -39 -10 -72 -21 -71
-26 -80 -47 -47 -110 16 -31 23 -62 24 -108 1 -36 6 -66 11 -68 6 -2 30 13 53
34 37 32 44 45 48 86 5 44 8 48 27 43 192 -53 499 -11 560 76 23 32 20 55 -14
123 -16 33 -30 65 -30 71 0 6 26 14 58 18 569 70 996 70 1535 0 28 -4 47 -12
47 -19 0 -7 -14 -42 -30 -78 -49 -104 -29 -138 114 -183 126 -40 319 -43 437
-8 13 3 18 -5 22 -36 6 -46 27 -83 60 -104 46 -30 51 -25 52 39 1 41 8 74 23
102 41 79 28 103 -75 133 -44 14 -50 19 -33 36 16 16 100 225 100 250 0 53
-63 81 -303 134 -486 108 -1037 151 -1532 119z m665 -29 c309 -20 583 -58 874
-124 170 -39 244 -63 259 -87 11 -17 -2 -56 -65 -197 l-28 -63 -27 20 c-35 26
-140 53 -350 91 -678 123 -1428 113 -2097 -27 -137 -28 -204 -49 -227 -69 -15
-13 -21 -3 -68 102 -28 64 -51 123 -51 130 0 33 88 62 350 118 456 96 968 134
1430 106z m-1166 -394 c3 -13 8 -30 11 -38 4 -10 -22 -13 -137 -14 -89 0 -178
-7 -237 -18 -95 -17 -127 -15 -75 5 30 11 386 88 415 88 10 1 19 -10 23 -23z
m1817 5 c136 -25 279 -58 314 -71 51 -19 18 -21 -71 -4 -58 11 -141 18 -237
18 -127 1 -146 3 -141 16 4 8 9 25 11 38 6 27 -4 26 124 3z m-1981 -96 c-7 -8
-29 -19 -49 -25 -45 -12 -201 -13 -201 -1 0 5 39 14 88 21 48 6 94 13 102 15
8 1 28 3 44 4 24 1 27 -1 16 -14z m150 4 c40 -9 51 -15 56 -35 9 -33 -16 -59
-80 -83 -118 -44 -305 -52 -431 -18 -39 10 -52 19 -59 40 -16 44 3 53 72 39
70 -14 204 -16 252 -2 20 5 51 23 70 39 39 34 48 35 120 20z m1853 -23 c57
-47 140 -62 240 -45 40 7 88 13 107 13 30 1 35 -2 38 -25 2 -14 -3 -31 -11
-38 -22 -17 -159 -41 -240 -41 -126 0 -295 49 -318 91 -14 26 5 57 39 65 15 3
32 7 37 9 35 12 70 2 108 -29z m190 13 c48 -7 87 -15 87 -19 0 -12 -111 -19
-162 -11 -43 7 -98 34 -98 47 0 6 17 5 173 -17z m-2583 -118 c10 -56 11 -76 0
-100 -23 -56 -37 -56 -43 -2 -3 27 -15 68 -26 90 -12 22 -21 43 -21 46 0 4 57
32 71 34 3 1 12 -30 19 -68z m2855 55 c41 -17 42 -23 15 -75 -11 -22 -22 -58
-26 -80 -8 -51 -20 -52 -40 -5 -13 31 -13 46 -2 105 7 38 14 69 15 69 2 0 19
-7 38 -14z"/>
<path d="M1500 3595 l0 -105 30 0 c29 0 30 1 30 51 0 42 2 49 13 40 8 -6 22
-29 32 -51 16 -35 22 -40 52 -40 l33 0 0 105 0 105 -29 0 c-29 0 -30 -2 -33
-52 l-3 -53 -28 53 c-25 47 -30 52 -62 52 l-35 0 0 -105z"/>
<path d="M1800 3595 l0 -105 29 0 c28 0 28 1 35 77 11 134 11 133 -29 133
l-35 0 0 -105z"/>
<path d="M1240 3683 l-26 -4 4 -102 c2 -56 5 -102 6 -102 0 0 40 1 89 3 l87 3
0 29 c0 28 -1 29 -52 27 -67 -3 -81 17 -15 21 42 3 47 5 47 28 0 22 -4 24 -50
24 -67 0 -64 17 5 25 49 7 55 10 55 31 0 23 -3 24 -62 23 -35 -1 -74 -4 -88
-6z"/>
<path d="M1977 3623 c-4 -38 -7 -85 -7 -105 0 -37 1 -38 39 -38 21 0 58 -3 83
-6 41 -6 46 -4 51 17 8 29 -6 39 -60 39 -31 0 -43 4 -43 15 0 11 10 13 50 8
49 -6 50 -5 50 21 0 22 -4 26 -27 26 -16 0 -38 3 -50 6 -41 11 -24 24 32 24
51 0 55 2 55 24 0 21 -5 24 -61 30 -112 11 -105 15 -112 -61z"/>
<path d="M963 3655 c-40 -17 -53 -42 -53 -100 0 -38 5 -52 29 -76 33 -33 82
-39 118 -14 15 11 22 12 25 3 3 -7 12 -9 21 -5 15 6 17 15 11 59 -4 29 -8 55
-10 56 -1 2 -21 1 -43 -3 -43 -7 -54 -27 -25 -43 20 -11 10 -32 -15 -32 -44 0
-68 72 -35 105 14 14 19 14 38 1 21 -13 76 -11 76 3 -1 12 -25 38 -47 49 -28
15 -50 15 -90 -3z"/>
<path d="M2270 3662 c-1 -4 -7 -51 -14 -104 -12 -91 -11 -98 5 -98 10 0 24 -3
32 -6 12 -4 16 3 19 28 2 28 7 34 31 36 20 3 27 -1 28 -15 3 -57 4 -58 37 -61
30 -3 32 -1 32 28 0 17 -4 40 -10 50 -7 13 -6 21 5 30 19 16 19 64 0 84 -8 8
-37 18 -63 21 -26 3 -59 8 -74 10 -16 3 -28 1 -28 -3z m108 -64 c17 -17 -3
-36 -33 -30 -28 5 -27 4 -19 26 7 19 35 21 52 4z"/>
<path d="M728 3624 c-3 -3 -2 -22 3 -42 15 -64 10 -67 -27 -19 -36 46 -62 57
-92 39 -10 -7 -9 -27 4 -105 18 -97 18 -97 47 -97 l29 0 -7 58 -7 57 37 -47
c29 -37 44 -48 66 -48 15 0 30 4 33 8 3 5 -2 52 -12 105 -16 94 -17 97 -42 97
-15 0 -29 -2 -32 -6z"/>
<path d="M2548 3528 c-9 -56 -16 -103 -15 -104 1 -1 16 -4 33 -7 l31 -6 15
102 c8 56 15 103 14 103 -1 1 -15 5 -31 8 l-31 7 -16 -103z"/>
<path d="M450 3570 c-29 -7 -29 -11 0 -130 17 -72 19 -75 45 -73 15 1 29 4 32
6 5 6 -37 190 -46 198 -3 3 -17 3 -31 -1z"/>
<path d="M2740 3493 c-30 -48 -56 -90 -58 -94 -5 -13 57 -15 70 -3 17 17 66 6
73 -16 6 -20 65 -34 65 -16 -1 27 -29 196 -35 206 -3 5 -18 10 -33 10 -23 0
-35 -13 -82 -87z m78 -38 c-2 -9 -8 -12 -17 -6 -11 7 -11 13 0 32 11 20 14 21
17 7 2 -10 2 -25 0 -33z"/>
<path d="M2036 3288 c-9 -12 -16 -29 -15 -38 0 -10 3 -9 9 5 7 17 9 16 9 -10
1 -17 8 -41 17 -54 16 -22 16 -23 -5 -12 -11 7 -21 19 -22 29 0 11 -2 13 -6 4
-7 -18 -53 25 -53 50 0 28 -16 21 -30 -12 -7 -17 -10 -45 -6 -67 12 -70 11
-75 -7 -87 -14 -9 -24 -7 -49 7 -17 10 -33 15 -36 13 -2 -3 -1 -21 2 -40 7
-37 37 -66 69 -66 15 0 16 -3 7 -20 -16 -29 -57 -47 -72 -32 -17 17 -28 15
-28 -6 0 -21 29 -52 48 -52 15 0 15 0 -7 -53 -10 -24 -31 -53 -45 -64 -35 -28
-33 -33 12 -32 20 1 29 3 20 6 -14 3 -11 10 18 35 19 17 46 50 60 74 14 24 30
44 35 44 13 0 -25 -72 -59 -112 -15 -18 -32 -42 -38 -53 -6 -11 -23 -21 -38
-23 -22 -3 -29 2 -40 30 -12 27 -16 30 -21 15 -7 -16 -3 -45 11 -82 6 -15 -4
-16 -107 -13 l-113 3 -23 34 c-13 19 -23 39 -23 45 1 6 10 -6 20 -26 11 -20
24 -39 30 -43 16 -10 -60 119 -81 137 -16 14 -21 32 -24 98 -2 44 -7 86 -11
92 -4 5 -6 34 -5 62 0 35 -6 63 -19 86 -11 19 -25 48 -31 63 -10 25 -15 28
-43 23 -17 -3 -61 -8 -98 -12 -52 -5 -72 -12 -89 -30 -13 -13 -28 -24 -35 -24
-6 0 -14 -7 -18 -15 -4 -11 2 -15 24 -15 19 0 30 -5 30 -14 0 -19 -22 -26 -78
-26 -64 0 -97 -19 -97 -53 1 -15 -3 -27 -7 -27 -15 0 -8 53 9 72 16 18 16 18
-2 12 -13 -5 -16 -4 -11 5 4 6 21 10 39 8 18 -2 23 -2 12 1 -15 5 -9 8 20 13
38 6 37 6 -9 4 -76 -4 -109 -58 -70 -113 14 -20 18 -21 27 -9 7 8 30 17 52 21
27 4 34 3 20 -3 -16 -7 -9 -10 30 -14 38 -3 34 -4 -17 -3 -92 2 -71 -17 25
-22 86 -5 101 -15 122 -89 20 -67 13 -89 -30 -103 -25 -8 -41 -24 -64 -65 -17
-30 -39 -59 -50 -65 -29 -15 -160 -12 -220 6 -60 17 -124 70 -140 115 -9 26
-7 33 19 63 39 44 39 77 0 110 -40 33 -98 48 -188 48 -57 0 -83 -5 -125 -26
-102 -49 -180 -155 -220 -296 -23 -79 -28 -125 -34 -303 -4 -124 -2 -161 8
-174 10 -12 10 -15 1 -9 -15 9 -15 4 -2 -240 11 -214 49 -485 89 -640 46 -175
81 -244 61 -118 -14 84 -12 165 4 212 8 22 18 62 22 88 l7 48 12 -42 c14 -45
43 -97 51 -89 3 3 0 33 -6 68 -11 59 -10 71 17 161 26 91 43 123 43 80 0 -30
30 -110 46 -123 13 -11 15 -5 13 42 -3 57 20 179 33 179 4 0 8 -6 8 -14 0 -19
38 -104 50 -111 6 -4 10 26 11 77 1 46 4 112 8 148 l6 65 29 -62 c16 -35 33
-63 38 -63 6 0 7 39 3 103 -8 126 -8 224 0 255 6 23 5 23 -10 8 -21 -20 -25
-20 -41 2 -21 27 -16 37 5 11 l18 -23 17 75 c9 41 24 85 32 99 9 14 12 16 7 5
-12 -30 -11 -305 2 -313 5 -4 10 -27 11 -52 1 -65 12 -182 18 -187 10 -10 37
7 31 19 -4 7 1 4 10 -7 9 -11 19 -31 22 -45 3 -14 12 -32 19 -41 10 -11 11
-26 4 -60 l-9 -44 4 47 c3 33 0 50 -10 58 -8 7 -15 19 -15 27 0 11 -5 13 -17
8 -10 -5 -36 -11 -58 -14 l-40 -6 23 -22 c12 -13 31 -23 42 -23 29 0 25 -13
-19 -58 -24 -24 -35 -42 -28 -45 18 -6 59 11 85 36 22 20 23 20 16 2 -8 -23
-65 -109 -93 -143 l-19 -22 -57 21 -57 21 -29 -28 c-21 -20 -29 -37 -29 -61 0
-18 5 -33 10 -33 6 0 10 9 10 21 0 16 4 19 18 14 9 -4 35 -7 56 -6 35 2 38 0
26 -14 -9 -11 -22 -14 -46 -9 -29 5 -34 3 -48 -25 -18 -33 -21 -77 -7 -85 5
-3 12 5 15 18 4 18 11 22 30 19 13 -3 27 0 30 6 10 16 52 13 67 -5 9 -11 22
-14 44 -10 l32 6 6 -57 c4 -40 2 -60 -6 -65 -7 -5 -2 -8 15 -8 19 0 31 9 47
36 22 38 27 64 11 64 -5 0 -14 18 -20 40 -6 21 -15 42 -20 45 -17 10 -11 39
13 65 34 39 59 89 51 102 -4 6 3 4 17 -5 27 -20 99 -23 117 -5 7 7 12 9 12 6
0 -13 -51 -253 -74 -348 -34 -137 -34 -172 0 -199 29 -23 69 -28 80 -10 4 7 0
9 -14 5 -11 -4 -22 -3 -25 1 -9 15 42 286 55 295 10 6 8 8 -5 8 -13 0 -16 6
-12 23 2 12 11 60 20 105 18 98 19 102 49 102 l22 0 -13 -92 c-16 -120 -19
-148 -34 -297 l-12 -124 27 -24 c17 -15 39 -23 59 -22 24 1 26 3 10 6 -27 5
-27 10 -12 173 6 65 16 118 22 122 8 5 6 8 -6 8 -19 0 -19 23 0 153 l5 39 27
-26 26 -25 -7 -212 c-7 -238 -7 -239 62 -237 23 0 27 2 13 5 -23 4 -23 7 -23
143 l0 138 29 10 29 10 7 -139 c7 -133 8 -140 32 -159 26 -21 83 -28 83 -10 0
5 -7 7 -15 4 -8 -4 -15 -5 -16 -3 -7 24 -22 276 -16 272 20 -12 52 -97 64
-173 15 -91 27 -110 74 -110 24 0 33 -10 70 -75 24 -41 45 -75 48 -75 4 0 24
33 46 73 38 68 42 72 82 78 23 3 48 11 56 17 8 7 19 49 27 105 12 95 40 177
60 177 8 0 9 -26 4 -88 -12 -167 -18 -197 -37 -196 -9 1 -14 -2 -11 -7 9 -15
58 -9 83 10 24 18 25 24 32 200 8 173 9 183 31 201 13 11 27 19 31 20 4 0 7
-28 5 -62 -3 -60 -4 -63 -28 -61 l-25 3 23 -12 c21 -11 22 -16 22 -149 0 -135
0 -138 -22 -141 -17 -2 -19 -5 -8 -9 8 -4 31 -1 50 5 l35 11 0 227 c0 222 1
228 22 250 12 12 24 20 27 17 2 -2 7 -48 11 -101 7 -92 6 -98 -11 -98 -17 -1
-17 -2 -3 -10 14 -8 19 -35 25 -137 5 -71 8 -132 9 -138 0 -5 -11 -12 -25 -16
-22 -6 -21 -7 10 -8 22 -1 45 7 63 22 l27 22 -25 215 c-13 118 -27 238 -31
266 -5 43 -3 56 17 87 13 20 27 37 32 37 4 0 7 -18 7 -40 0 -22 -5 -40 -10
-40 -7 0 -7 -6 -1 -17 9 -16 41 -184 41 -212 0 -6 -8 -11 -17 -11 -15 0 -15
-1 -1 -12 17 -14 65 -269 53 -287 -4 -7 -15 -7 -33 -1 -25 10 -26 9 -8 -5 26
-20 42 -19 82 6 41 25 41 31 8 174 -29 129 -79 363 -89 420 l-7 40 22 -22 c37
-40 66 -29 88 32 l10 30 1 -36 c2 -63 -53 -110 -88 -76 -10 10 -12 8 -9 -8 2
-15 12 -21 42 -23 21 -2 43 1 49 7 6 6 14 6 23 -2 8 -7 34 -28 58 -47 50 -39
55 -50 26 -57 -12 -3 -20 -14 -20 -25 0 -11 -11 -33 -25 -50 -14 -16 -25 -33
-25 -38 0 -16 20 -21 41 -10 19 11 20 10 9 -11 -14 -25 -1 -39 39 -39 22 0 23
1 8 13 -15 10 -16 20 -9 52 7 38 10 40 44 41 26 1 48 10 73 33 30 26 39 29 56
20 11 -6 26 -8 34 -6 7 3 17 1 23 -5 20 -20 24 14 6 54 -18 39 -23 41 -66 23
-11 -4 -18 -3 -18 4 0 6 7 11 15 11 8 0 15 4 15 9 0 5 11 8 25 5 18 -3 25 0
25 11 0 10 -5 13 -12 9 -7 -5 -8 -3 -3 6 9 14 -41 59 -66 60 -9 0 -22 -14 -29
-31 -7 -17 -24 -35 -38 -40 -26 -10 -23 -12 -97 75 -16 19 -36 35 -42 36 -7 0
-13 8 -13 18 0 9 -3 28 -5 42 l-6 25 11 -25 c23 -51 93 -106 123 -95 9 4 -3
22 -39 60 l-52 53 32 -5 c23 -3 38 0 49 12 25 24 21 35 -14 35 -17 0 -39 4
-49 10 -14 8 -19 5 -25 -13 -4 -12 -7 -26 -6 -32 1 -5 -5 -2 -13 8 -10 13 -15
14 -18 6 -3 -9 -6 -8 -11 3 -4 13 -1 16 19 12 16 -3 24 0 24 10 0 8 5 26 11
40 10 21 14 23 30 13 10 -6 20 -9 22 -7 9 10 15 90 6 84 -5 -3 -4 7 1 21 17
45 15 116 -3 130 -9 7 -17 21 -16 31 0 16 2 15 10 -4 5 -15 15 -22 26 -20 15
3 18 13 15 68 -2 47 0 61 7 50 15 -21 13 -83 -4 -160 -16 -72 -19 -207 -6
-229 10 -15 16 -9 42 49 l16 35 23 -45 c14 -25 27 -70 30 -100 l5 -55 25 68
c14 37 27 67 31 67 10 0 51 -129 51 -164 0 -18 -5 -43 -11 -55 -7 -12 -8 -21
-2 -21 5 0 20 23 33 50 l24 50 21 -52 c32 -80 39 -117 32 -178 -3 -30 -5 -57
-3 -58 1 -2 9 9 17 24 l15 28 11 -56 c18 -84 16 -146 -6 -211 -25 -73 -9 -69
34 9 49 90 124 402 168 699 21 138 29 466 15 605 -16 156 -58 296 -107 352
-23 26 -89 31 -166 13 -63 -14 -74 -14 -123 0 -30 8 -54 17 -54 18 0 2 58 5
220 10 25 1 59 -1 75 -6 29 -7 28 -5 -18 37 -60 57 -128 80 -224 78 -154 -3
-242 -83 -168 -152 31 -29 32 -57 2 -101 -46 -69 -124 -99 -257 -99 -64 0 -86
9 -60 25 13 8 13 75 0 75 -5 0 -7 -13 -4 -30 13 -62 -46 -82 -89 -30 -26 30
-43 68 -34 76 9 10 37 -9 37 -26 0 -37 67 -55 78 -22 3 11 0 11 -16 1 -17 -10
-23 -10 -36 0 -22 18 -20 38 5 51 22 12 21 35 -2 35 -39 1 -58 55 -19 55 11 0
20 5 20 10 0 6 -7 10 -16 10 -27 0 -13 53 16 61 16 5 19 7 7 8 -9 1 -26 -4
-36 -11 -23 -14 -51 -4 -51 19 0 15 2 15 15 -3 10 -12 13 -14 10 -3 -8 22 38
40 84 33 23 -4 46 -1 57 6 16 9 11 10 -24 5 -31 -4 -41 -2 -37 6 4 6 27 9 54
8 25 -2 56 0 69 5 17 6 27 3 36 -10 13 -17 14 -16 25 4 15 28 14 77 -1 90 -7
5 -35 13 -63 17 -33 5 -56 15 -68 29 -18 21 -18 21 -11 -8 6 -25 5 -28 -14
-22 -16 6 -24 1 -36 -23 -9 -16 -23 -37 -33 -47 -13 -13 -14 -16 -3 -12 8 2
24 20 35 39 l20 34 79 -10 c75 -9 80 -12 89 -38 6 -20 6 -32 -2 -40 -8 -8 -11
-7 -11 6 0 13 -7 16 -32 11 -18 -3 -62 -9 -98 -14 -36 -5 -78 -13 -93 -19 -18
-7 -26 -7 -22 -1 3 6 13 10 21 10 8 0 12 5 9 10 -4 6 -12 7 -18 4 -7 -4 0 6
14 22 14 16 35 44 45 62 10 17 22 32 27 32 4 0 3 9 -3 20 -6 11 -15 18 -20 15
-12 -8 -83 62 -75 75 3 5 -1 10 -9 10 -18 0 -40 -36 -32 -53 2 -7 5 -3 6 8 1
18 2 18 15 -5 17 -31 19 -51 2 -30 -7 8 -19 16 -27 18 -28 6 -50 35 -50 64 0
34 -13 36 -34 6z m-42 -134 l27 -24 -30 0 c-36 0 -51 23 -50 77 l1 38 12 -34
c6 -18 24 -44 40 -57z m-596 1 c7 -14 12 -40 12 -56 0 -29 -6 -37 -82 -107
-11 -9 -18 -30 -18 -53 0 -72 -25 -91 -57 -42 -13 19 -17 44 -15 95 1 47 -3
79 -14 99 -8 17 -14 40 -12 52 3 20 11 23 73 28 39 3 77 6 86 7 9 1 21 -9 27
-23z m773 -42 c16 4 18 3 8 -9 -6 -8 -22 -14 -35 -14 -18 0 -24 6 -24 21 0 18
2 19 15 9 8 -7 24 -10 36 -7z m-961 -75 c0 -5 -13 7 -30 25 -16 19 -30 37 -30
41 0 3 14 -8 30 -26 17 -17 30 -35 30 -40z m714 14 c22 4 24 3 15 -13 -14 -27
-44 -23 -68 7 -29 37 -26 53 3 24 17 -15 33 -21 50 -18z m-819 8 c3 -6 -1 -7
-9 -4 -18 7 -21 14 -7 14 6 0 13 -4 16 -10z m-78 -6 c-3 -3 -12 -4 -19 -1 -8
3 -5 6 6 6 11 1 17 -2 13 -5z m143 -9 c10 -12 10 -19 2 -27 -9 -9 -12 -7 -12
9 0 14 -8 23 -22 26 -22 4 -22 4 -2 6 12 0 27 -6 34 -14z m870 -8 c0 -16 -27
-41 -52 -50 -25 -9 -22 2 9 35 29 31 43 35 43 15z m-838 -39 c-7 -7 -12 -8
-12 -2 0 14 12 26 19 19 2 -3 -1 -11 -7 -17z m214 0 c-22 -12 -21 -31 2 -24
15 5 17 -1 16 -65 -2 -69 -14 -113 -14 -50 0 25 -4 32 -15 27 -8 -3 -15 -1
-15 4 0 6 7 10 15 10 8 0 15 7 15 16 0 11 -6 14 -22 8 -13 -4 -26 -12 -30 -18
-5 -6 -8 -2 -8 11 0 16 4 21 15 17 8 -4 15 -1 15 5 0 6 -10 12 -22 12 l-23 2
23 4 c12 2 22 11 22 19 0 17 -12 18 -28 2 -9 -9 -12 -9 -12 0 0 7 14 15 30 19
17 3 30 10 30 15 0 5 5 6 11 2 8 -5 6 -10 -5 -16z m-889 -5 c-16 -16 -15 -18
11 -30 l27 -12 -30 6 c-16 3 -32 7 -34 9 -5 4 29 44 38 44 3 0 -2 -8 -12 -17z
m1551 -5 c0 -37 -39 -156 -54 -169 -12 -10 -13 -8 -6 12 5 13 12 46 16 72 4
27 14 51 22 54 8 3 14 10 14 16 0 5 -9 2 -20 -8 -28 -26 -34 -13 -9 18 25 33
38 34 37 5z m-68 -16 c0 -19 -48 -51 -87 -60 -33 -8 -46 -7 -60 5 -15 12 -15
14 -2 10 9 -3 27 0 40 7 13 8 38 21 54 30 33 17 55 21 55 8z m817 -8 c-3 -3
-12 -4 -19 -1 -8 3 -5 6 6 6 11 1 17 -2 13 -5z m-38 -7 c-2 -1 -15 -11 -29
-22 l-25 -20 19 23 c11 12 24 22 29 22 6 0 8 -1 6 -3z m-2181 -59 c-38 -24
-88 -28 -158 -12 -39 9 -83 13 -98 10 -25 -6 -25 -5 -7 6 13 9 60 13 137 13
115 0 116 0 100 20 -11 13 -7 11 11 -4 20 -18 24 -27 15 -33z m52 -3 c0 -2
-10 -10 -22 -16 -21 -11 -22 -11 -9 4 13 16 31 23 31 12z m1336 -47 c-15 -111
-69 -178 -144 -178 -36 0 -72 19 -72 38 0 3 5 1 12 -6 19 -19 73 -14 102 9 28
22 65 87 85 152 18 53 25 46 17 -15z m178 1 c9 -26 17 -33 34 -32 12 2 22 -2
22 -7 0 -18 -36 -10 -57 13 -20 22 -43 60 -43 72 0 19 35 -18 44 -46z m547 24
l24 -26 -32 23 c-34 25 -39 30 -25 30 5 0 19 -12 33 -27z m-1348 10 c-7 -2
-19 -2 -25 0 -7 3 -2 5 12 5 14 0 19 -2 13 -5z m-873 -24 c0 -5 -4 -8 -9 -5
-16 10 -87 -62 -114 -116 -15 -30 -28 -71 -29 -91 -1 -20 -4 -34 -8 -32 -4 2
-15 -38 -25 -90 -16 -78 -17 -105 -8 -148 6 -28 8 -57 4 -64 -9 -18 5 -445 20
-558 13 -105 13 -239 1 -262 -5 -7 -16 60 -27 149 -20 172 -25 430 -12 561 l8
79 -32 -36 c-19 -22 -39 -36 -53 -35 -16 1 -17 2 -4 6 11 3 20 18 24 41 3 20
23 104 45 185 21 82 39 151 39 154 0 4 -10 -3 -22 -14 -43 -38 -87 -58 -99
-46 -9 9 -7 11 7 7 15 -4 22 3 32 29 17 48 107 196 140 230 44 47 122 82 122
56z m2408 -3 c53 -28 91 -87 126 -193 10 -29 28 -68 42 -88 24 -36 19 -36 -32
0 -17 13 -16 6 12 -51 36 -75 54 -153 54 -233 l-1 -56 -25 30 c-18 20 -24 24
-20 11 17 -49 27 -179 22 -256 -8 -104 -17 -159 -62 -375 -45 -212 -49 -225
-59 -163 -5 33 0 88 19 190 14 78 30 179 37 223 12 86 27 435 19 435 -3 0 -6
38 -7 83 -1 87 -40 262 -70 320 -27 54 -65 97 -82 95 -8 -2 -16 4 -16 12 -1 8
-6 14 -13 13 -7 -2 -12 2 -12 7 0 14 37 12 68 -4z m-1538 -6 c0 -5 -10 -10
-22 -9 -22 0 -22 1 -3 9 11 5 21 9 23 9 1 1 2 -3 2 -9z m37 4 c-3 -3 -12 -4
-19 -1 -8 3 -5 6 6 6 11 1 17 -2 13 -5z m-137 -19 c0 -8 -2 -15 -4 -15 -2 0
-6 7 -10 15 -3 8 -1 15 4 15 6 0 10 -7 10 -15z m33 -5 c-3 -11 -7 -20 -8 -20
-1 0 -5 9 -8 20 -3 12 0 20 8 20 8 0 11 -8 8 -20z m797 -28 c0 -20 9 -57 20
-81 26 -56 25 -59 -5 -31 -30 28 -46 79 -38 125 7 44 23 35 23 -13z m689 -12
c17 -21 41 -42 53 -46 45 -14 60 -40 68 -116 4 -40 11 -82 16 -93 7 -18 6 -19
-11 -5 -16 13 -18 13 -12 0 45 -118 91 -290 77 -290 -5 0 -21 15 -36 33 -16
19 -24 24 -20 12 44 -107 49 -257 17 -475 -13 -85 -25 -157 -26 -159 -2 -2
-11 23 -21 55 -12 43 -15 75 -10 123 17 159 25 284 25 386 l0 110 -20 -35
c-19 -34 -18 -24 4 31 7 18 5 74 -7 195 -20 206 -21 210 -54 217 -15 3 -34 8
-42 11 -12 5 -15 -4 -14 -49 0 -30 3 -58 7 -61 4 -4 7 -27 7 -51 0 -33 6 -50
25 -68 33 -33 18 -32 -16 1 l-28 26 29 -88 c16 -49 32 -118 36 -152 5 -52 9
-62 23 -57 13 5 14 4 3 -7 -11 -11 -19 -7 -42 21 l-29 34 15 -49 c20 -61 29
-242 19 -359 l-7 -89 -23 57 c-23 56 -24 63 -18 272 4 141 3 215 -4 215 -6 0
-8 25 -5 65 5 72 -23 245 -41 258 -7 4 1 5 17 1 l29 -7 -5 52 c-5 51 -33 105
-57 107 -24 3 -26 5 -13 13 24 15 60 0 91 -39z m-2160 7 c0 -8 -2 -8 -6 1 -4
10 -9 9 -24 -4 -10 -9 -19 -22 -19 -29 0 -14 -65 -35 -109 -35 -29 0 -31 2
-30 33 2 30 2 30 6 5 2 -16 6 -28 7 -28 2 0 38 17 82 39 78 38 95 41 93 18z
m812 1 c18 -34 38 -118 28 -118 -5 0 -9 8 -9 18 -1 9 -9 41 -19 70 -19 55 -19
66 0 30z m-163 -58 c2 -78 -14 -96 -20 -22 -4 40 4 92 15 92 1 0 4 -31 5 -70z
m1616 0 c-5 -5 -9 8 -10 33 l-1 42 10 -33 c6 -20 6 -36 1 -42z m-1684 40 c-6
-12 -14 -39 -18 -62 -4 -23 -13 -43 -21 -46 -10 -3 -11 2 -6 19 12 40 44 109
50 109 3 0 1 -9 -5 -20z m29 -7 c-5 -15 -7 -44 -4 -65 5 -25 3 -38 -4 -38 -14
0 -14 85 -1 111 16 28 21 23 9 -8z m80 -80 c1 -13 -3 -23 -8 -23 -10 0 -21
110 -12 125 5 10 19 -56 20 -102z m35 70 c8 -53 7 -83 -2 -83 -5 0 -9 6 -9 13
0 6 -4 33 -8 60 -4 29 -4 47 3 47 5 0 12 -17 16 -37z m43 -31 c4 -36 2 -52 -6
-52 -6 0 -11 16 -11 38 0 20 -3 48 -6 62 -5 19 -4 22 5 14 6 -6 14 -34 18 -62z
m32 14 c13 -54 14 -66 2 -66 -4 0 -11 19 -14 43 -2 23 -8 51 -13 61 -5 13 -4
17 3 13 6 -4 16 -27 22 -51z m67 -12 c15 -36 18 -52 9 -43 -8 8 -21 36 -29 63
-19 62 -10 52 20 -20z m1219 37 c-3 -6 -11 -11 -16 -11 -5 0 -4 6 3 14 14 16
24 13 13 -3z m-2064 -9 c-7 -2 -18 1 -23 6 -8 8 -4 9 13 5 13 -4 18 -8 10 -11z
m31 -34 c2 -23 0 -37 -7 -36 -18 3 -74 -36 -79 -57 -3 -11 -6 -32 -6 -47 0
-15 -5 -30 -10 -33 -6 -4 -7 -11 -4 -17 4 -6 2 -8 -3 -5 -6 4 -16 0 -24 -9
-26 -32 -47 -36 -59 -12 -10 21 -10 22 3 5 14 -17 16 -16 40 15 24 32 57 101
57 119 0 5 -5 8 -11 7 -6 -2 -14 3 -16 10 -3 6 3 12 12 12 8 0 34 9 55 20 34
17 40 25 41 53 1 38 6 26 11 -25z m477 5 c-23 -53 -35 -70 -45 -60 -4 4 0 15
8 24 9 10 23 33 32 51 25 48 28 39 5 -15z m854 -31 c-33 -44 -42 -35 -19 22
20 51 22 53 30 29 6 -19 4 -31 -11 -51z m677 22 c0 -12 3 -31 6 -41 5 -16 4
-16 -8 -2 -7 9 -18 14 -23 12 -6 -2 -9 15 -6 44 3 43 5 45 17 28 8 -10 14 -29
14 -41z m-2128 -26 c-6 -6 -7 0 -4 19 5 21 7 23 10 9 2 -10 0 -22 -6 -28z
m158 0 c0 -18 -2 -20 -9 -8 -6 8 -7 18 -5 22 9 14 14 9 14 -14z m1914 13 c3
-5 -1 -14 -9 -21 -13 -10 -15 -9 -15 9 0 21 14 28 24 12z m-2168 -81 c-1 -39
-5 -70 -11 -70 -6 0 -11 -41 -12 -98 -2 -81 -7 -110 -30 -167 -16 -38 -33 -70
-39 -72 -13 -4 -38 31 -48 67 -4 14 4 5 17 -19 l24 -45 11 35 c12 36 62 255
62 272 0 5 -8 3 -17 -4 -15 -12 -16 -12 -8 6 4 11 17 53 29 93 11 39 21 72 22
72 1 0 1 -31 0 -70z m2214 21 c0 -4 -78 -143 -173 -308 l-174 -300 -6 -84 c-8
-115 -45 -227 -107 -321 -54 -83 -146 -172 -213 -208 -38 -21 -54 -44 -187
-276 -80 -139 -147 -253 -150 -254 -3 0 -72 114 -152 252 -145 249 -148 254
-207 291 -82 53 -178 158 -224 244 -45 86 -77 204 -77 286 0 59 -2 63 -168
351 -93 160 -174 301 -181 314 l-12 22 1016 0 c562 0 1015 -4 1015 -9z m-2310
-111 c13 -25 25 -38 32 -34 7 4 8 3 4 -4 -12 -20 -21 -13 -44 33 -27 56 -20
60 8 5z m2620 27 c0 -7 -7 -22 -15 -33 -13 -17 -13 -16 -3 14 13 34 18 40 18
19z m-300 -72 c7 -8 17 -12 23 -8 6 4 7 1 3 -6 -6 -9 -13 -8 -27 5 -27 24 -32
13 -14 -30 8 -20 24 -72 34 -116 11 -43 22 -84 26 -90 15 -24 -15 -7 -41 23
-25 30 -27 30 -20 7 28 -98 36 -171 34 -283 l-3 -122 -23 40 c-23 38 -24 46
-26 315 -1 152 -6 282 -10 288 -4 6 -1 22 5 34 13 23 13 23 20 -9 3 -18 12
-40 19 -48z m180 57 c0 -5 -7 -17 -15 -28 -14 -18 -14 -17 -4 9 12 27 19 34
19 19z m-2190 -112 c-22 -106 -39 -274 -41 -395 0 -44 -4 -100 -9 -125 -6 -30
-8 15 -5 135 2 99 7 191 11 205 7 25 7 25 -17 -4 -24 -27 -25 -27 -39 -10 -14
17 -14 18 2 6 15 -12 18 -10 23 15 6 26 59 200 72 233 3 9 -4 6 -19 -8 -27
-25 -34 -21 -57 28 -10 21 -9 22 1 7 37 -53 33 -52 58 -13 12 21 26 34 31 29
5 -5 0 -51 -11 -103z m2061 87 c-10 -9 -11 -8 -5 6 3 10 9 15 12 12 3 -3 0
-11 -7 -18z m396 7 c-3 -3 -12 -4 -19 -1 -8 3 -5 6 6 6 11 1 17 -2 13 -5z
m-2571 -143 c-1 -69 -5 -117 -10 -113 -6 3 -7 -77 -4 -199 4 -149 2 -216 -7
-249 -12 -40 -13 -22 -14 170 0 118 4 235 8 259 l9 45 -19 -25 c-10 -13 -19
-27 -19 -31 0 -18 -30 -6 -49 18 l-21 27 0 -79 c0 -44 5 -153 10 -242 9 -146
8 -170 -7 -220 l-18 -57 -9 185 c-7 141 -6 217 5 320 l14 135 20 -39 c11 -22
25 -42 32 -44 13 -4 47 96 66 195 6 35 12 63 13 63 0 0 0 -54 0 -119z m2388
107 c-3 -4 -9 -8 -15 -8 -5 0 -9 4 -9 8 0 5 7 9 15 9 8 0 12 -4 9 -9z m-346
-186 c3 -50 8 -69 14 -60 8 11 9 11 6 0 -9 -36 -24 -10 -29 53 -3 39 -9 81
-13 95 -6 23 -6 23 5 5 7 -10 14 -52 17 -93z m-1812 -14 c0 -40 1 -93 2 -118
1 -53 -1 -90 -6 -86 -12 12 -11 276 1 276 1 0 2 -33 3 -72z m1757 -59 c-8 -38
-9 -32 -9 46 0 80 1 85 9 44 5 -27 5 -65 0 -90z m204 49 c-3 -8 -6 -5 -6 6 -1
11 2 17 5 13 3 -3 4 -12 1 -19z m273 14 c0 -5 -7 -17 -15 -28 -14 -18 -14 -17
-4 9 12 27 19 34 19 19z m-2182 -92 c0 -22 -1 -22 -8 5 -4 17 -8 41 -8 55 0
22 1 22 8 -5 4 -16 8 -41 8 -55z m1647 -5 c-4 -42 -9 -74 -11 -72 -3 3 -2 39
2 81 4 42 9 74 12 72 2 -3 1 -39 -3 -81z m42 -47 c-3 -7 -5 -2 -5 12 0 14 2
19 5 13 2 -7 2 -19 0 -25z m-1682 -32 c-4 -25 -11 -43 -16 -40 -5 3 -10 -16
-11 -43 l-1 -48 -6 45 c-4 31 -2 48 6 53 7 4 16 26 19 48 4 22 9 38 11 35 3
-2 1 -25 -2 -50z m52 7 c-3 -10 -5 -4 -5 12 0 17 2 24 5 18 2 -7 2 -21 0 -30z
m1530 -10 c-3 -10 -5 -2 -5 17 0 19 2 27 5 18 2 -10 2 -26 0 -35z m60 -25 c-3
-8 -6 -5 -6 6 -1 11 2 17 5 13 3 -3 4 -12 1 -19z m-1576 -28 c7 0 9 -3 6 -6
-10 -10 -37 16 -36 35 0 11 3 9 9 -6 5 -13 15 -23 21 -23z m1549 7 c8 -3 3 -5
-11 -4 -18 1 -25 6 -21 15 2 7 8 9 11 4 3 -5 13 -12 21 -15z m-1515 3 c-3 -5
-1 -10 6 -10 7 0 10 -3 6 -6 -9 -9 -28 6 -22 17 4 5 8 9 11 9 3 0 2 -4 -1 -10z
m1465 -19 c3 -2 -3 -1 -12 2 -15 5 -18 0 -18 -29 0 -31 -33 -114 -45 -114 -3
0 4 19 16 41 13 26 19 54 17 75 -2 19 0 34 5 34 4 0 5 6 1 13 -7 10 13 -1 36
-22z m-1540 -16 c0 -20 7 -51 14 -70 16 -38 13 -47 -4 -14 -15 27 -29 119 -19
119 5 0 9 -16 9 -35z m1637 -22 c-3 -10 -5 -2 -5 17 0 19 2 27 5 18 2 -10 2
-26 0 -35z m-1555 -18 c5 -43 -7 -33 -17 14 -5 21 -4 31 3 27 5 -3 12 -22 14
-41z m1501 13 c-3 -18 -10 -40 -15 -48 -8 -12 -8 -11 -4 3 3 10 6 32 6 48 0
16 4 29 10 29 5 0 7 -14 3 -32z m-1475 -83 c-3 -3 -9 2 -12 12 -6 14 -5 15 5
6 7 -7 10 -15 7 -18z m1442 -5 c-6 -11 -13 -20 -16 -20 -2 0 0 9 6 20 6 11 13
20 16 20 2 0 0 -9 -6 -20z m-1541 -42 c14 -23 18 -39 11 -43 -5 -3 -10 1 -10
9 0 8 -10 32 -22 53 -27 47 -9 31 21 -19z m60 -8 c5 -8 5 -24 0 -35 -7 -17 -8
-16 -8 8 -1 15 -8 40 -17 55 -15 25 -15 26 1 7 9 -11 20 -27 24 -35z m1516 20
c-8 -16 -15 -39 -16 -52 0 -21 -1 -21 -8 -3 -5 13 -1 31 12 52 24 41 33 43 12
3z m-63 -37 c-4 -30 -6 -34 -12 -18 -6 16 3 55 13 55 2 0 1 -17 -1 -37z m-22
-143 c-5 -20 -13 -25 -41 -25 -49 -1 -56 6 -21 21 19 8 33 22 36 36 3 13 8 41
12 63 l8 40 6 -55 c4 -30 4 -66 0 -80z m47 98 c-3 -7 -5 -2 -5 12 0 14 2 19 5
13 2 -7 2 -19 0 -25z m-1510 0 c-3 -8 -6 -5 -6 6 -1 11 2 17 5 13 3 -3 4 -12
1 -19z m81 -14 c20 5 23 4 12 -3 -12 -8 -11 -14 10 -35 19 -21 20 -26 7 -26
-9 0 -23 12 -31 28 l-15 27 -1 -27 c0 -17 9 -34 25 -46 27 -21 23 -32 -11 -32
-27 0 -36 12 -44 60 -5 28 -10 34 -25 32 -16 -2 -17 -1 -5 7 8 5 18 7 24 4 5
-4 7 1 3 11 -4 10 -3 15 3 11 6 -3 11 2 11 12 1 12 3 10 6 -5 4 -20 9 -23 31
-18z m1338 -38 c-9 -14 -21 -26 -26 -26 -16 0 -11 14 12 35 15 12 18 20 10 23
-7 2 -12 9 -12 15 0 6 7 4 17 -5 15 -16 15 -19 -1 -42z m85 29 c5 4 9 1 9 -4
0 -6 -4 -11 -8 -11 -12 0 -32 22 -32 35 0 5 5 2 11 -8 6 -9 14 -15 20 -12z
m-1531 5 c0 -5 -2 -10 -4 -10 -3 0 -8 5 -11 10 -3 6 -1 10 4 10 6 0 11 -4 11
-10z m-45 -30 c-3 -5 -12 -10 -18 -10 -7 0 -6 4 3 10 19 12 23 12 15 0z m92
-22 c-3 -8 -6 -5 -6 6 -1 11 2 17 5 13 3 -3 4 -12 1 -19z m1470 -10 c-3 -8 -6
-5 -6 6 -1 11 2 17 5 13 3 -3 4 -12 1 -19z m-1457 -83 c16 -19 50 -19 78 1 20
14 22 14 22 -3 0 -20 -47 -53 -74 -53 -33 0 -56 37 -55 88 1 44 2 45 9 15 4
-18 13 -40 20 -48z m-71 -5 c6 -18 6 -28 1 -25 -6 4 -10 1 -10 -4 0 -6 -9 -20
-20 -31 -11 -11 -20 -27 -20 -36 0 -8 -4 -12 -10 -9 -18 11 -15 18 40 83 6 7
8 21 5 32 -10 32 2 23 14 -10z m1619 -27 c17 -30 15 -37 -4 -18 -10 9 -26 14
-37 11 -15 -4 -17 -2 -8 7 6 6 11 19 11 30 0 15 2 16 13 5 8 -7 19 -23 25 -35z
m-1388 -31 c-23 -8 -37 7 -32 33 l5 26 18 -28 c11 -16 14 -29 9 -31z m1620 8
c12 -8 9 -10 -11 -10 -18 0 -37 -12 -57 -34 -22 -25 -36 -33 -51 -29 -18 5
-21 1 -21 -24 0 -27 -15 -49 -47 -67 -9 -5 -11 -2 -7 8 3 8 15 18 25 21 15 5
18 12 13 28 -3 12 -7 27 -8 32 0 6 -11 19 -23 30 -35 31 -27 40 8 11 41 -35
62 -33 107 9 40 37 49 40 72 25z m-1920 -59 c0 -5 -6 -21 -14 -36 -17 -33 -16
-37 16 -100 23 -46 28 -78 13 -93 -3 -3 -5 7 -4 24 2 18 -12 55 -34 97 -20 37
-33 67 -29 67 5 0 15 11 22 25 13 25 30 34 30 16z m-160 -31 c0 -5 -10 -10
-22 -9 -22 0 -22 1 -3 9 11 5 21 9 23 9 1 1 2 -3 2 -9z m2097 -6 c2 -5 -19 -9
-47 -9 -52 0 -55 11 -5 18 38 5 48 3 52 -9z m-2008 -10 c13 -11 -8 -10 -34 2
l-30 13 30 -6 c17 -3 32 -7 34 -9z m-19 -59 c14 -19 14 -19 -2 -6 -10 7 -18
18 -18 24 0 6 1 8 3 6 1 -2 9 -13 17 -24z m-35 -5 c-3 -5 -12 -10 -18 -10 -7
0 -6 4 3 10 19 12 23 12 15 0z m626 -11 c39 -28 41 -75 3 -89 -14 -6 -30 -8
-35 -4 -10 6 -13 114 -3 114 3 0 19 -9 35 -21z m-668 4 c-7 -2 -21 -2 -30 0
-10 3 -4 5 12 5 17 0 24 -2 18 -5z m132 -9 c9 -9 14 -18 11 -21 -7 -7 -46 16
-46 27 0 15 17 12 35 -6z m1195 -74 c0 -11 -7 -20 -15 -20 -13 0 -14 4 -5 20
6 11 13 20 15 20 3 0 5 -9 5 -20z m-166 -288 c-4 -18 -13 -32 -20 -32 -18 0
-18 6 3 41 21 35 25 32 17 -9z m-240 -18 c3 -8 2 -12 -4 -9 -6 3 -10 10 -10
16 0 14 7 11 14 -7z"/>
<path d="M1224 3138 c-4 -7 -3 -8 4 -4 7 4 12 3 12 -3 0 -5 -6 -12 -12 -14 -7
-3 4 -6 24 -6 31 -1 36 2 31 16 -4 11 -3 14 5 9 7 -4 12 -2 12 3 0 15 -67 14
-76 -1z"/>
<path d="M1400 2950 c0 -5 5 -10 10 -10 6 0 10 5 10 10 0 6 -4 10 -10 10 -5 0
-10 -4 -10 -10z"/>
<path d="M690 2633 c0 -3 71 -129 157 -279 l158 -273 17 72 c50 204 203 380
405 463 l58 24 -397 0 c-219 0 -398 -3 -398 -7z"/>
<path d="M1570 2629 c-277 -40 -508 -280 -536 -555 l-7 -64 27 0 c16 0 26 -5
26 -15 0 -9 -9 -15 -25 -15 -22 0 -25 -4 -25 -32 0 -51 27 -152 58 -220 32
-69 101 -168 117 -168 6 0 40 29 75 65 51 51 67 63 75 52 13 -18 95 -77 107
-77 5 0 21 28 36 61 l28 62 -62 61 c-45 45 -65 75 -78 114 l-18 52 -104 0
c-63 0 -104 -4 -104 -10 0 -5 -13 -10 -30 -10 l-30 0 0 70 0 70 30 0 c17 0 30
-5 30 -10 0 -7 38 -10 106 -8 l106 3 20 52 c10 28 37 70 59 93 40 41 127 90
161 90 47 0 48 2 48 181 0 155 -1 169 -17 168 -10 -1 -43 -5 -73 -10z m78
-162 l3 -156 -28 -6 c-16 -4 -48 -13 -73 -22 -60 -21 -152 -114 -172 -174
l-15 -44 -86 -3 c-71 -2 -88 0 -93 13 -4 11 -20 15 -55 15 l-49 0 0 -35 c0
-28 -4 -35 -20 -35 -25 0 -26 29 -4 119 44 180 173 342 334 419 47 22 110 45
140 51 30 6 64 13 75 15 11 2 25 3 30 1 6 -1 11 -64 13 -158z"/>
<path d="M1330 2355 l0 -135 35 0 35 0 0 55 0 55 45 0 c43 0 45 1 45 30 0 29
-2 30 -45 30 -38 0 -45 3 -45 20 0 17 7 20 45 20 43 0 45 1 45 30 l0 30 -80 0
-80 0 0 -135z"/>
<path d="M1680 2471 l0 -171 28 -6 c77 -16 120 -39 174 -95 42 -42 61 -71 70
-104 l12 -45 58 0 c32 0 58 -4 58 -9 0 -4 28 -12 61 -15 47 -6 64 -4 70 6 7
10 9 10 9 1 0 -7 7 -13 15 -13 9 0 15 -9 15 -25 0 -16 -6 -25 -15 -25 -8 0
-15 -6 -15 -12 0 -9 -3 -9 -9 1 -8 13 -21 13 -88 3 -43 -7 -97 -12 -120 -12
-35 0 -43 -3 -43 -18 0 -50 -92 -178 -140 -194 -11 -3 -7 -20 15 -71 16 -37
35 -67 41 -67 6 0 30 15 54 33 24 17 49 36 56 42 10 7 31 -7 80 -55 l65 -65
34 38 c68 78 125 214 140 335 6 48 5 52 -14 52 -12 0 -21 6 -21 15 0 9 9 15
21 15 20 0 21 3 14 57 -35 280 -262 524 -520 558 -28 3 -62 9 -77 11 l-28 6 0
-171z m300 -116 l0 -135 -35 0 -35 0 0 135 0 135 35 0 35 0 0 -135z m314 -432
c-17 -121 -76 -255 -142 -326 l-26 -27 -68 67 -68 67 -32 -30 c-18 -17 -44
-39 -58 -48 l-25 -17 -26 58 -26 57 36 27 c40 28 96 107 106 150 6 25 10 26
96 32 52 3 97 11 106 19 13 10 17 10 20 1 6 -17 43 -16 67 2 37 28 48 20 40
-32z"/>
<path d="M1860 2636 c0 -2 26 -13 58 -25 32 -11 91 -43 129 -71 145 -101 238
-246 278 -434 5 -26 22 -1 162 240 85 148 157 275 160 282 4 9 -78 12 -391 12
-218 0 -396 -2 -396 -4z m770 -12 c0 -5 -245 -432 -278 -484 -15 -24 -15 -24
-32 35 -50 181 -172 333 -332 416 -32 16 -58 31 -58 34 0 3 158 5 350 5 193 0
350 -3 350 -6z"/>
<path d="M1554 2247 c-28 -14 -55 -30 -59 -37 -5 -8 13 -32 46 -66 53 -53 55
-54 86 -42 25 9 43 10 75 1 l43 -12 53 52 c28 28 52 55 52 59 0 4 -21 19 -46
34 -68 40 -179 45 -250 11z m224 -12 c28 -13 52 -28 52 -32 0 -5 -21 -30 -47
-56 -36 -35 -52 -44 -63 -37 -19 13 -86 13 -109 1 -14 -8 -27 0 -65 38 l-48
48 29 20 c70 50 168 57 251 18z"/>
<path d="M1443 2153 c-64 -95 -66 -197 -6 -302 l25 -43 58 57 57 56 -15 43
c-14 38 -14 45 0 73 l16 31 -58 57 -57 57 -20 -29z"/>
<path d="M1811 2126 c-46 -47 -52 -56 -42 -74 15 -28 14 -95 -1 -110 -10 -10
1 -25 47 -72 l59 -59 23 32 c52 70 59 194 15 278 -15 29 -32 54 -37 56 -6 2
-34 -21 -64 -51z"/>
<path d="M1634 2080 c-56 -22 -72 -103 -29 -145 27 -28 88 -34 116 -12 50 39
48 115 -4 147 -35 22 -50 23 -83 10z m94 -37 c65 -72 -45 -167 -113 -98 -29
28 -32 61 -9 93 33 47 82 49 122 5z"/>
<path d="M1535 1850 l-57 -58 38 -25 c84 -56 195 -60 284 -11 28 15 50 30 50
33 0 4 -24 31 -54 60 l-53 53 -42 -13 c-35 -10 -47 -10 -75 3 l-33 16 -58 -58z
m117 23 c15 -3 42 0 60 6 31 11 34 10 81 -37 l49 -49 -34 -21 c-56 -35 -128
-47 -190 -33 -30 6 -69 21 -87 32 l-34 20 49 50 c31 32 54 47 64 43 8 -3 27
-8 42 -11z"/>
<path d="M1522 1654 c-26 -53 -30 -69 -20 -75 17 -11 102 -29 133 -29 24 0 25
2 25 74 l0 73 -37 6 c-21 3 -45 8 -53 11 -12 5 -24 -11 -48 -60z m121 29 c4
-2 7 -31 7 -64 0 -45 -3 -59 -15 -59 -27 0 -115 22 -120 29 -2 5 5 32 17 60
l22 52 41 -7 c22 -3 43 -8 48 -11z"/>
<path d="M1755 1710 c-11 -5 -32 -9 -47 -9 l-28 -1 0 -76 0 -77 46 7 c26 3 63
11 84 17 l37 11 -31 69 c-17 38 -33 69 -36 68 -3 0 -14 -4 -25 -9z"/>
<path d="M1277 1592 l-58 -59 54 -41 c97 -75 247 -132 347 -132 l40 0 0 80 0
79 -37 6 c-77 12 -169 47 -225 86 -32 21 -59 39 -61 39 -1 0 -29 -26 -60 -58z
m176 -28 c40 -21 155 -53 190 -54 4 0 7 -31 7 -70 l0 -70 -32 0 c-92 1 -222
50 -322 121 l-58 41 53 54 52 53 30 -25 c16 -14 52 -36 80 -50z"/>
<path d="M1966 1631 c-39 -43 -205 -109 -278 -111 -5 0 -8 -36 -8 -80 l0 -80
38 0 c102 0 255 60 350 138 l44 35 -58 58 c-32 33 -61 59 -65 59 -3 0 -14 -9
-23 -19z"/>
<path d="M1428 1348 c11 -18 66 -113 122 -210 56 -98 104 -178 106 -178 2 0 4
83 4 184 l0 184 -62 7 c-35 4 -90 16 -123 26 -33 10 -61 19 -63 19 -2 0 5 -15
16 -32z"/>
<path d="M1850 1360 c-30 -10 -81 -21 -112 -25 l-58 -7 0 -186 c0 -102 2 -183
4 -181 2 2 52 87 111 189 59 102 113 195 121 208 18 27 11 27 -66 2z m39 -22
c-20 -37 -191 -333 -195 -337 -2 -2 -4 68 -4 156 l0 161 73 10 c41 6 84 16 98
21 37 15 41 13 28 -11z"/>
<path d="M2315 2993 c-22 -3 -44 -9 -50 -15 -14 -14 114 -3 128 11 12 12 4 12
-78 4z"/>
<path d="M3100 1241 c0 -5 6 -12 13 -14 6 -3 -2 -6 -20 -6 -40 -1 -73 -40 -73
-87 0 -21 -5 -34 -13 -34 -7 0 -30 -9 -52 -20 -48 -24 -45 -24 -45 -1 0 32
-39 71 -70 71 -22 0 -28 4 -24 15 9 21 -22 30 -41 12 -16 -17 -20 -47 -6 -47
5 0 12 6 15 13 3 6 2 -7 -1 -30 -5 -37 -2 -46 25 -73 17 -16 38 -30 46 -30 9
0 16 -4 16 -8 0 -10 -63 -72 -74 -72 -4 0 -17 11 -28 25 -39 50 -137 27 -216
-52 -50 -50 -146 -195 -182 -273 -14 -30 -29 -58 -35 -63 -9 -6 -54 -1 -63 7
-1 2 9 27 23 57 26 57 35 162 14 174 -6 4 6 21 30 42 33 28 41 41 41 68 0 41
-22 65 -60 65 -33 0 -75 -43 -84 -87 -6 -25 -11 -28 -51 -28 -35 0 -51 -7 -76
-30 -37 -36 -55 -68 -64 -116 l-6 -35 -43 20 c-23 11 -50 32 -59 48 -18 31
-34 35 -63 14 -10 -8 -30 -12 -45 -9 -22 4 -27 0 -41 -36 -10 -24 -26 -45 -42
-52 -22 -10 -31 -8 -75 20 -28 18 -88 52 -133 75 -61 31 -91 53 -116 86 -41
53 -47 56 -78 39 -20 -10 -29 -10 -49 1 -35 19 -102 -2 -115 -36 -14 -35 -39
-30 -56 11 -8 19 -20 35 -28 35 -7 0 -21 9 -31 20 -10 11 -28 20 -40 20 -13 0
-28 7 -35 16 -26 30 -48 35 -79 19 -17 -8 -43 -15 -60 -15 -27 0 -57 -25 -75
-63 -5 -9 -7 -9 -12 1 -3 7 -22 30 -43 52 -29 31 -41 38 -60 33 -18 -4 -22 -2
-19 8 2 7 24 17 49 21 75 13 99 27 99 58 0 15 -9 35 -20 45 -18 16 -33 17
-146 12 -122 -6 -126 -6 -110 11 30 34 20 50 -34 57 -27 4 -54 4 -60 0 -21
-13 -9 -46 35 -91 l45 -47 115 7 c75 4 115 3 115 -4 0 -5 -22 -10 -49 -10 -69
0 -105 -15 -98 -40 5 -21 -23 -111 -43 -135 -9 -11 -18 -6 -46 25 -41 45 -91
65 -140 56 -27 -6 -34 -4 -34 9 0 27 -39 93 -58 99 -11 4 -27 4 -36 0 -12 -5
-15 -2 -10 9 11 28 -5 38 -31 20 -28 -20 -34 -49 -9 -39 13 5 15 2 9 -11 -23
-55 -8 -108 40 -139 21 -13 23 -19 14 -36 -6 -12 -9 -48 -7 -81 4 -56 8 -63
45 -96 22 -20 67 -46 99 -59 82 -31 98 -45 85 -71 -14 -26 -14 -74 1 -106 11
-23 10 -28 -7 -38 -56 -31 -88 -93 -66 -128 14 -24 14 -27 -1 -25 -24 2 -18
-19 8 -28 29 -9 46 0 24 14 -11 7 -8 10 13 10 42 0 63 15 80 59 l16 39 58 -21
c63 -22 220 -29 303 -14 44 8 45 8 64 -27 22 -41 66 -65 135 -73 56 -6 123 12
225 61 l66 32 37 -20 c26 -15 40 -32 47 -55 9 -33 8 -36 -37 -76 -38 -33 -47
-48 -47 -73 0 -18 4 -32 8 -32 4 0 24 16 43 36 41 43 89 73 52 32 -25 -27 -30
-58 -10 -58 13 0 110 76 115 91 7 18 20 8 65 -51 42 -53 51 -60 82 -60 19 0
35 5 35 10 0 6 9 10 20 10 11 0 20 -6 20 -14 0 -21 29 -28 58 -13 21 9 28 20
30 51 3 32 -2 44 -30 74 l-33 35 30 -7 c47 -11 75 -34 75 -61 0 -29 14 -39 46
-31 21 6 24 12 24 50 0 38 -5 48 -31 69 l-32 25 49 22 c41 18 60 21 119 16
253 -21 250 -21 310 8 31 16 63 39 72 53 20 30 41 26 110 -17 93 -59 204 -68
288 -22 89 48 110 148 45 214 -33 33 -85 37 -164 13 -50 -15 -152 -20 -193 -9
-13 4 -23 13 -23 22 0 8 -8 24 -17 35 -17 18 -17 20 2 34 11 8 44 26 73 39 67
30 128 77 148 115 13 26 20 29 62 29 99 0 237 62 267 119 21 41 26 93 12 125
-12 27 -10 31 16 58 29 29 32 54 12 101 -5 13 -3 16 8 11 8 -3 18 -1 22 5 3 6
-5 15 -20 21 -33 12 -45 13 -45 1z m18 -53 c20 -20 13 -55 -14 -77 -29 -23
-54 -27 -54 -10 0 5 -4 7 -10 4 -5 -3 -10 1 -10 9 0 8 5 18 10 21 6 4 8 11 4
16 -8 14 25 49 46 49 9 0 21 -5 28 -12z m-2604 -17 c3 -5 -1 -14 -9 -21 -31
-26 -17 -40 43 -42 l57 -2 -60 -3 c-41 -3 -55 -7 -45 -13 9 -6 10 -10 4 -10
-16 0 -74 67 -74 85 0 11 11 15 39 15 22 0 42 -4 45 -9z m2352 -54 c42 -45 42
-104 1 -91 -57 17 -87 81 -49 103 23 14 24 14 48 -12z m-2105 -16 c20 -16 22
-23 13 -38 -12 -19 -29 -20 -29 -2 0 6 -11 17 -25 25 l-25 15 25 -7 c14 -4 30
-14 37 -23 11 -15 12 -15 13 1 0 25 -18 32 -95 39 l-70 6 66 1 c53 2 72 -2 90
-17z m-106 -22 c-22 -4 -62 -7 -90 -7 l-50 1 60 7 c33 4 74 7 90 7 24 1 22 -1
-10 -8z m2410 -34 c29 -28 30 -41 9 -95 -14 -34 -20 -40 -38 -35 -15 5 -17 4
-7 -3 32 -23 -120 -81 -210 -80 -33 0 -35 2 -31 27 2 14 16 36 31 48 30 26 38
28 44 11 2 -7 3 -5 1 5 -2 16 61 107 87 122 6 4 15 2 19 -5 5 -8 9 -5 13 9 7
29 52 27 82 -4z m-2815 -6 c0 -5 4 -8 10 -4 12 7 40 -47 40 -78 0 -27 -17 -47
-40 -47 -22 0 -64 45 -55 59 3 6 1 11 -4 11 -6 0 -11 7 -11 16 0 9 5 12 12 8
7 -5 8 -3 3 6 -5 8 -1 18 10 27 23 16 35 17 35 2z m381 -23 c-7 -8 -10 -20 -6
-25 3 -6 0 -8 -9 -5 -8 3 -17 12 -20 19 -6 17 9 29 24 20 6 -3 10 -1 10 6 0 7
3 9 6 6 4 -4 1 -13 -5 -21z m349 -90 c7 -9 23 -16 36 -16 13 0 24 -5 24 -10 0
-6 10 -15 23 -21 22 -10 35 -26 92 -123 21 -35 45 -58 75 -75 25 -13 67 -37
93 -54 l49 -30 -30 -13 c-17 -7 -36 -23 -43 -36 -6 -13 -13 -25 -15 -27 -6 -7
-101 69 -150 121 -28 29 -61 76 -75 105 -24 53 -46 72 -34 31 19 -63 103 -160
238 -274 57 -48 44 -56 -30 -21 -49 23 -87 33 -134 35 l-66 4 -32 53 c-36 59
-57 121 -71 205 -9 52 -9 51 -6 -25 4 -82 25 -148 67 -206 l20 -29 -30 -31
c-38 -38 -49 -33 -148 64 l-72 70 34 40 c24 28 38 59 49 108 23 100 18 105
-12 12 -17 -50 -39 -94 -56 -112 l-28 -30 -37 20 c-19 10 -52 19 -71 19 l-35
1 26 16 c15 9 34 29 43 44 9 16 36 42 59 58 23 16 55 52 72 80 25 44 33 51 60
51 17 0 40 6 50 14 21 15 42 9 65 -18z m1376 0 c4 -41 -46 -91 -82 -82 -23 6
-26 11 -20 38 14 72 95 107 102 44z m-1643 -20 c31 -34 48 -66 33 -66 -2 0
-11 -3 -20 -6 -11 -4 -18 5 -26 36 -6 23 -14 40 -16 37 -3 -3 0 -23 6 -45 10
-38 9 -42 -21 -74 l-31 -33 6 63 c4 41 2 61 -4 57 -6 -3 -10 -37 -10 -74 0
-63 -2 -69 -29 -89 -39 -29 -45 -11 -22 64 21 67 33 124 26 124 -2 0 -14 -33
-26 -72 -22 -71 -22 -72 -31 -41 -7 27 -4 39 22 79 16 27 30 55 30 64 0 12 10
16 38 16 30 0 44 -7 75 -40z m2037 25 c15 -29 12 -71 -6 -78 -11 -4 -12 -8 -4
-13 31 -19 -44 -122 -83 -113 -17 4 -19 3 -7 -6 11 -8 0 -16 -54 -40 -37 -17
-72 -31 -77 -31 -5 0 -9 -6 -9 -14 0 -10 -16 -15 -52 -18 -62 -5 -60 -6 -52
16 5 14 9 15 16 4 7 -9 8 -8 4 5 -7 23 10 57 29 57 8 0 12 6 9 14 -7 17 25 68
37 60 5 -3 9 4 9 15 0 25 90 123 132 144 46 23 95 22 108 -2z m-2350 -18 c0
-14 2 -15 9 -4 7 12 12 11 30 -1 41 -29 64 -72 86 -161 24 -95 21 -121 -16
-130 -18 -5 -209 83 -225 104 -6 8 -14 22 -17 31 -4 13 -2 16 11 12 15 -5 15
-4 0 9 -31 25 -23 74 18 115 26 26 38 32 43 23 6 -10 10 -9 14 3 9 22 47 21
47 -1z m875 -53 c8 -13 68 -13 81 0 7 7 21 -4 43 -35 26 -36 51 -55 124 -91
51 -25 116 -61 145 -79 30 -19 72 -37 95 -41 49 -8 132 -44 167 -73 l25 -21
-25 0 c-27 0 -325 115 -350 135 -27 22 -182 107 -186 102 -12 -11 225 -140
354 -193 142 -58 143 -58 120 -76 -13 -9 -51 -29 -86 -44 l-63 -27 -32 24
c-18 13 -74 52 -124 87 -51 34 -131 99 -178 144 -47 44 -85 76 -85 71 0 -15
131 -137 219 -204 58 -44 79 -65 67 -67 -9 -2 -27 7 -40 21 -13 14 -32 27 -43
31 -10 3 -29 20 -41 36 -13 17 -29 30 -37 30 -8 0 -18 8 -24 17 -5 10 -49 41
-98 69 -54 31 -97 64 -111 84 l-22 33 20 19 c11 10 20 22 20 27 0 7 36 29 52
30 4 1 10 -3 13 -9z m993 -53 c17 -16 22 -32 22 -68 0 -37 -5 -50 -22 -63 -16
-12 -18 -16 -5 -12 15 5 14 -1 -7 -43 -26 -50 -63 -87 -140 -140 -46 -32 -66
-33 -66 -5 0 7 -9 19 -19 26 -10 6 -17 18 -14 25 4 10 9 11 19 2 15 -12 19 1
6 16 -5 6 1 44 12 86 16 58 25 75 36 71 13 -5 13 -3 1 11 -11 14 -11 22 -1 48
7 17 18 28 25 25 7 -2 12 3 11 12 -3 43 98 50 142 9z m-303 -123 c30 -7 55
-39 55 -71 0 -37 -13 -34 -75 20 -42 37 -53 44 -40 24 9 -15 36 -43 58 -61 24
-20 37 -38 33 -45 -5 -8 -18 -3 -40 17 -18 15 -46 34 -64 41 -24 10 -32 20
-33 40 -2 23 -2 24 -6 4 -5 -27 -2 -26 -41 -12 l-30 10 21 34 c13 19 31 34 42
35 11 0 29 7 39 15 18 13 21 12 37 -15 10 -16 30 -32 44 -36z m-1180 -134 c57
-54 116 -102 130 -106 23 -6 25 -10 19 -43 -4 -20 -8 -38 -10 -40 -2 -2 -22
-4 -44 -4 -22 0 -43 -4 -46 -8 -10 -16 -138 -9 -208 11 -77 22 -100 38 -127
92 -30 59 -25 79 38 141 51 52 60 57 100 57 43 0 49 -4 148 -100z m1723 24
c42 -29 25 -134 -35 -204 -44 -52 -149 -90 -168 -60 -3 6 -11 10 -16 10 -6 0
-7 -5 -3 -12 5 -8 -4 -9 -35 -4 -23 3 -75 9 -117 13 -59 5 -74 9 -69 20 3 8 5
27 5 43 0 24 5 28 38 34 20 3 47 9 59 12 13 4 23 1 26 -8 2 -8 3 -7 2 3 -1 9
15 25 38 38 32 19 41 21 49 10 8 -11 9 -10 4 3 -3 12 12 29 57 61 34 24 69 47
77 50 28 10 66 7 88 -9z m-1074 -7 c22 -16 18 -60 -6 -65 -13 -2 -18 3 -18 18
0 25 -25 37 -45 20 -22 -18 -19 -57 6 -70 11 -7 76 -15 142 -19 135 -8 164
-18 233 -81 59 -54 99 -72 149 -68 33 2 41 0 33 -9 -29 -35 -105 -21 -176 34
-87 66 -135 83 -244 83 -103 0 -140 9 -175 42 -65 61 29 167 101 115z m856
-31 c0 -7 -94 -64 -125 -76 -34 -13 -29 -6 35 44 25 20 55 36 68 36 12 0 22
-2 22 -4z m-900 -13 c0 -5 -5 -15 -10 -23 -8 -12 -10 -11 -10 8 0 12 5 22 10
22 6 0 10 -3 10 -7z m1520 -13 c30 -16 46 -81 29 -116 -23 -47 -127 -105 -137
-76 -2 7 -8 12 -13 12 -6 0 -7 -4 -4 -10 11 -17 -68 -11 -112 10 -24 10 -54
30 -67 43 -14 14 -27 23 -30 20 -2 -3 -13 -2 -24 1 -18 6 -19 8 -4 41 9 19 23
36 32 36 11 1 11 2 -2 6 -10 2 -18 9 -18 15 0 6 8 7 17 3 10 -3 52 -6 95 -6
51 0 78 -4 81 -12 2 -7 3 -5 3 3 -3 29 114 51 154 30z m-1401 -36 c2 -2 -18
-4 -45 -4 -47 1 -48 1 -24 14 22 13 47 9 69 -10z m-410 4 c11 -11 12 -10 6 1
-7 11 -2 13 25 7 66 -13 232 -96 192 -96 -7 0 -3 -9 8 -20 11 -11 20 -24 20
-29 0 -9 -147 -74 -192 -85 -18 -4 -28 -2 -28 5 0 9 -3 9 -14 0 -14 -11 -66
-6 -99 11 -24 12 -57 67 -57 96 0 12 7 39 15 59 13 31 17 34 32 22 15 -12 16
-12 10 5 -5 12 -3 23 5 28 20 12 62 10 77 -4z m916 -11 c26 -40 31 -88 10 -99
-13 -8 -15 -12 -4 -18 16 -11 3 -28 -41 -53 l-31 -19 7 28 c7 25 5 27 -20 20
-18 -4 -25 -3 -21 4 3 5 2 10 -4 10 -5 0 -11 -5 -13 -11 -3 -8 -17 -10 -42 -5
-28 5 -36 11 -32 23 5 11 2 14 -10 9 -11 -4 -26 2 -40 15 l-24 22 93 48 c105
54 149 61 172 26z m-1517 -134 c-8 -21 -20 -37 -26 -35 -7 1 -12 -2 -12 -8 0
-14 -33 -13 -48 2 -20 20 -14 43 24 82 l37 38 20 -20 c19 -20 19 -23 5 -59z
m872 67 c0 -24 66 -80 130 -109 39 -18 69 -36 66 -38 -3 -3 -44 13 -90 35 -73
35 -88 46 -106 81 -11 23 -16 41 -10 41 5 0 10 -4 10 -10z m99 -42 c38 -34 53
-41 134 -63 31 -8 57 -18 57 -21 0 -2 -12 -9 -26 -15 -20 -7 -31 -6 -43 4 -9
8 -46 28 -82 44 -61 28 -109 66 -109 85 0 13 33 -4 69 -34z m51 10 c19 -10 61
-24 93 -33 33 -9 57 -21 57 -29 0 -11 -9 -11 -47 2 -84 27 -122 44 -140 65
-19 21 -18 21 37 -5z m133 -3 c50 -23 64 -53 47 -96 -17 -40 -69 -64 -119 -53
l-36 7 59 12 c60 12 86 33 86 67 0 23 -33 43 -95 57 -28 7 -57 16 -65 22 -26
18 81 4 123 -16z m159 -100 c21 -8 47 -15 58 -15 31 0 98 -37 116 -65 18 -27
11 -65 -12 -65 -8 0 -14 10 -14 24 0 34 -38 61 -116 80 -99 25 -122 39 -116
71 l5 26 21 -20 c12 -11 38 -27 58 -36z m-292 -15 c4 0 8 -11 8 -25 0 -18 -12
-34 -37 -52 -20 -15 -51 -40 -68 -57 -54 -49 -37 -18 18 35 46 44 51 53 45 80
-5 26 -3 30 10 25 9 -3 19 -6 24 -6z m226 -65 c15 -35 33 -60 49 -67 27 -12
32 -24 13 -31 -24 -8 -48 14 -78 73 -32 64 -36 80 -19 80 5 0 21 -25 35 -55z
m91 -14 c43 -47 54 -86 31 -109 -7 -7 -19 -12 -27 -12 -12 0 -11 3 2 18 10 10
17 24 17 31 0 7 -26 40 -57 73 -47 49 -53 59 -33 53 14 -4 44 -28 67 -54z
m-121 -26 c18 -36 28 -65 23 -65 -5 0 -17 17 -26 38 -10 20 -26 49 -36 65 -13
20 -15 27 -5 27 7 0 27 -29 44 -65z m-136 41 c0 -7 -20 -30 -45 -50 -55 -45
-57 -39 -7 19 39 46 52 54 52 31z m72 -3 c24 -28 67 -113 58 -113 -5 0 -29 29
-54 65 -26 37 -40 65 -32 65 7 0 20 -8 28 -17z"/>
<path d="M440 1161 c0 -6 11 -22 24 -38 l24 -28 -5 27 c-3 15 -9 25 -13 23 -5
-3 -12 0 -16 6 -5 9 1 10 19 5 14 -3 29 -2 32 4 4 6 -8 10 -29 10 -20 0 -36
-4 -36 -9z"/>
<path d="M3020 1039 c0 -5 5 -7 10 -4 6 3 10 8 10 11 0 2 -4 4 -10 4 -5 0 -10
-5 -10 -11z"/>
<path d="M3045 1010 c-3 -5 -1 -10 4 -10 6 0 11 5 11 10 0 6 -2 10 -4 10 -3 0
-8 -4 -11 -10z"/>
<path d="M2921 984 c0 -11 3 -14 6 -6 3 7 2 16 -1 19 -3 4 -6 -2 -5 -13z"/>
<path d="M2985 990 c-3 -5 -1 -10 4 -10 6 0 11 5 11 10 0 6 -2 10 -4 10 -3 0
-8 -4 -11 -10z"/>
<path d="M3030 959 c0 -5 5 -7 10 -4 6 3 10 8 10 11 0 2 -4 4 -10 4 -5 0 -10
-5 -10 -11z"/>
<path d="M2965 940 c-3 -5 -2 -10 4 -10 5 0 13 5 16 10 3 6 2 10 -4 10 -5 0
-13 -4 -16 -10z"/>
<path d="M2900 930 c0 -5 4 -10 9 -10 6 0 13 5 16 10 3 6 -1 10 -9 10 -9 0
-16 -4 -16 -10z"/>
<path d="M2800 879 c0 -5 5 -7 10 -4 6 3 10 8 10 11 0 2 -4 4 -10 4 -5 0 -10
-5 -10 -11z"/>
<path d="M2848 873 c7 -3 16 -2 19 1 4 3 -2 6 -13 5 -11 0 -14 -3 -6 -6z"/>
<path d="M2935 870 c-3 -5 -1 -10 4 -10 6 0 11 5 11 10 0 6 -2 10 -4 10 -3 0
-8 -4 -11 -10z"/>
<path d="M2601 884 c0 -11 3 -14 6 -6 3 7 2 16 -1 19 -3 4 -6 -2 -5 -13z"/>
<path d="M2650 789 c0 -5 5 -7 10 -4 6 3 10 8 10 11 0 2 -4 4 -10 4 -5 0 -10
-5 -10 -11z"/>
<path d="M2560 769 c0 -5 5 -7 10 -4 6 3 10 8 10 11 0 2 -4 4 -10 4 -5 0 -10
-5 -10 -11z"/>
<path d="M2615 740 c-3 -5 -1 -10 4 -10 6 0 11 5 11 10 0 6 -2 10 -4 10 -3 0
-8 -4 -11 -10z"/>
<path d="M2510 724 c0 -8 5 -12 10 -9 6 3 10 10 10 16 0 5 -4 9 -10 9 -5 0
-10 -7 -10 -16z"/>
<path d="M2560 690 c0 -5 5 -10 10 -10 6 0 10 5 10 10 0 6 -4 10 -10 10 -5 0
-10 -4 -10 -10z"/>
<path d="M2470 649 c0 -5 5 -7 10 -4 6 3 10 8 10 11 0 2 -4 4 -10 4 -5 0 -10
-5 -10 -11z"/>
<path d="M365 880 c3 -5 8 -10 11 -10 2 0 4 5 4 10 0 6 -5 10 -11 10 -5 0 -7
-4 -4 -10z"/>
<path d="M441 874 c0 -11 3 -14 6 -6 3 7 2 16 -1 19 -3 4 -6 -2 -5 -13z"/>
<path d="M290 870 c0 -5 5 -10 11 -10 5 0 7 5 4 10 -3 6 -8 10 -11 10 -2 0 -4
-4 -4 -10z"/>
<path d="M417 849 c7 -7 15 -10 18 -7 3 3 -2 9 -12 12 -14 6 -15 5 -6 -5z"/>
<path d="M350 830 c0 -5 5 -10 11 -10 5 0 7 5 4 10 -3 6 -8 10 -11 10 -2 0 -4
-4 -4 -10z"/>
<path d="M290 821 c0 -5 5 -13 10 -16 6 -3 10 -2 10 4 0 5 -4 13 -10 16 -5 3
-10 2 -10 -4z"/>
<path d="M400 810 c0 -5 5 -10 11 -10 5 0 7 5 4 10 -3 6 -8 10 -11 10 -2 0 -4
-4 -4 -10z"/>
<path d="M475 810 c3 -5 8 -10 11 -10 2 0 4 5 4 10 0 6 -5 10 -11 10 -5 0 -7
-4 -4 -10z"/>
<path d="M335 770 c3 -5 8 -10 11 -10 2 0 4 5 4 10 0 6 -5 10 -11 10 -5 0 -7
-4 -4 -10z"/>
<path d="M460 771 c0 -5 5 -13 10 -16 6 -3 10 -2 10 4 0 5 -4 13 -10 16 -5 3
-10 2 -10 -4z"/>
<path d="M390 760 c0 -5 5 -10 10 -10 6 0 10 5 10 10 0 6 -4 10 -10 10 -5 0
-10 -4 -10 -10z"/>
<path d="M320 740 c0 -5 5 -10 11 -10 5 0 7 5 4 10 -3 6 -8 10 -11 10 -2 0 -4
-4 -4 -10z"/>
<path d="M415 710 c3 -5 8 -10 11 -10 2 0 4 5 4 10 0 6 -5 10 -11 10 -5 0 -7
-4 -4 -10z"/>
<path d="M365 690 c3 -5 8 -10 11 -10 2 0 4 5 4 10 0 6 -5 10 -11 10 -5 0 -7
-4 -4 -10z"/>
<path d="M470 680 c0 -5 5 -10 11 -10 5 0 7 5 4 10 -3 6 -8 10 -11 10 -2 0 -4
-4 -4 -10z"/>
<path d="M510 670 c0 -5 5 -10 11 -10 5 0 7 5 4 10 -3 6 -8 10 -11 10 -2 0 -4
-4 -4 -10z"/>
<path d="M428 663 c7 -3 16 -2 19 1 4 3 -2 6 -13 5 -11 0 -14 -3 -6 -6z"/>
<path d="M2171 814 c0 -11 3 -14 6 -6 3 7 2 16 -1 19 -3 4 -6 -2 -5 -13z"/>
<path d="M2235 800 c-3 -5 -1 -10 4 -10 6 0 11 5 11 10 0 6 -2 10 -4 10 -3 0
-8 -4 -11 -10z"/>
<path d="M2265 740 c-3 -5 -1 -10 4 -10 6 0 11 5 11 10 0 6 -2 10 -4 10 -3 0
-8 -4 -11 -10z"/>
<path d="M2130 709 c0 -5 5 -7 10 -4 6 3 10 8 10 11 0 2 -4 4 -10 4 -5 0 -10
-5 -10 -11z"/>
<path d="M2180 669 c0 -5 5 -7 10 -4 6 3 10 8 10 11 0 2 -4 4 -10 4 -5 0 -10
-5 -10 -11z"/>
<path d="M2220 620 c-9 -6 -10 -10 -3 -10 6 0 15 5 18 10 8 12 4 12 -15 0z"/>
<path d="M2065 610 c3 -5 8 -10 11 -10 2 0 4 5 4 10 0 6 -5 10 -11 10 -5 0 -7
-4 -4 -10z"/>
<path d="M2150 599 c0 -5 5 -7 10 -4 6 3 10 8 10 11 0 2 -4 4 -10 4 -5 0 -10
-5 -10 -11z"/>
<path d="M2090 540 c0 -5 4 -10 9 -10 6 0 13 5 16 10 3 6 -1 10 -9 10 -9 0
-16 -4 -16 -10z"/>
<path d="M2150 540 c0 -5 7 -7 15 -4 8 4 15 8 15 10 0 2 -7 4 -15 4 -8 0 -15
-4 -15 -10z"/>
<path d="M2065 480 c3 -5 8 -10 11 -10 2 0 4 5 4 10 0 6 -5 10 -11 10 -5 0 -7
-4 -4 -10z"/>
<path d="M650 630 c0 -5 5 -10 11 -10 5 0 7 5 4 10 -3 6 -8 10 -11 10 -2 0 -4
-4 -4 -10z"/>
<path d="M590 620 c0 -5 5 -10 11 -10 5 0 7 5 4 10 -3 6 -8 10 -11 10 -2 0 -4
-4 -4 -10z"/>
<path d="M685 580 c3 -5 8 -10 11 -10 2 0 4 5 4 10 0 6 -5 10 -11 10 -5 0 -7
-4 -4 -10z"/>
<path d="M545 560 c3 -5 8 -10 11 -10 2 0 4 5 4 10 0 6 -5 10 -11 10 -5 0 -7
-4 -4 -10z"/>
<path d="M750 550 c0 -5 5 -10 11 -10 5 0 7 5 4 10 -3 6 -8 10 -11 10 -2 0 -4
-4 -4 -10z"/>
<path d="M615 530 c3 -5 8 -10 11 -10 2 0 4 5 4 10 0 6 -5 10 -11 10 -5 0 -7
-4 -4 -10z"/>
<path d="M685 490 c3 -5 11 -10 16 -10 6 0 7 5 4 10 -3 6 -11 10 -16 10 -6 0
-7 -4 -4 -10z"/>
<path d="M810 490 c0 -5 5 -10 11 -10 5 0 7 5 4 10 -3 6 -8 10 -11 10 -2 0 -4
-4 -4 -10z"/>
<path d="M575 480 c3 -5 8 -10 11 -10 2 0 4 5 4 10 0 6 -5 10 -11 10 -5 0 -7
-4 -4 -10z"/>
<path d="M750 480 c0 -5 5 -10 10 -10 6 0 10 5 10 10 0 6 -4 10 -10 10 -5 0
-10 -4 -10 -10z"/>
<path d="M520 450 c0 -5 5 -10 11 -10 5 0 7 5 4 10 -3 6 -8 10 -11 10 -2 0 -4
-4 -4 -10z"/>
<path d="M856 447 c3 -10 9 -15 12 -12 3 3 0 11 -7 18 -10 9 -11 8 -5 -6z"/>
<path d="M660 430 c0 -5 5 -10 11 -10 5 0 7 5 4 10 -3 6 -8 10 -11 10 -2 0 -4
-4 -4 -10z"/>
<path d="M800 430 c0 -5 5 -10 11 -10 5 0 7 5 4 10 -3 6 -8 10 -11 10 -2 0 -4
-4 -4 -10z"/>
<path d="M590 420 c0 -5 5 -10 11 -10 5 0 7 5 4 10 -3 6 -8 10 -11 10 -2 0 -4
-4 -4 -10z"/>
<path d="M895 400 c3 -5 8 -10 11 -10 2 0 4 5 4 10 0 6 -5 10 -11 10 -5 0 -7
-4 -4 -10z"/>
<path d="M630 380 c0 -5 5 -10 10 -10 6 0 10 5 10 10 0 6 -4 10 -10 10 -5 0
-10 -4 -10 -10z"/>
<path d="M680 370 c0 -5 5 -10 10 -10 6 0 10 5 10 10 0 6 -4 10 -10 10 -5 0
-10 -4 -10 -10z"/>
<path d="M765 360 c3 -5 8 -10 11 -10 2 0 4 5 4 10 0 6 -5 10 -11 10 -5 0 -7
-4 -4 -10z"/>
<path d="M2455 560 c-3 -5 -1 -10 4 -10 6 0 11 5 11 10 0 6 -2 10 -4 10 -3 0
-8 -4 -11 -10z"/>
<path d="M2401 544 c0 -11 3 -14 6 -6 3 7 2 16 -1 19 -3 4 -6 -2 -5 -13z"/>
<path d="M2340 500 c0 -5 7 -7 15 -4 8 4 15 8 15 10 0 2 -7 4 -15 4 -8 0 -15
-4 -15 -10z"/>
<path d="M2450 490 c0 -5 5 -10 10 -10 6 0 10 5 10 10 0 6 -4 10 -10 10 -5 0
-10 -4 -10 -10z"/>
<path d="M2315 440 c-3 -5 -2 -10 4 -10 5 0 13 5 16 10 3 6 2 10 -4 10 -5 0
-13 -4 -16 -10z"/>
<path d="M2410 439 c0 -5 5 -7 10 -4 6 3 10 8 10 11 0 2 -4 4 -10 4 -5 0 -10
-5 -10 -11z"/>
<path d="M2478 423 c7 -3 16 -2 19 1 4 3 -2 6 -13 5 -11 0 -14 -3 -6 -6z"/>
<path d="M2240 409 c0 -5 5 -7 10 -4 6 3 10 8 10 11 0 2 -4 4 -10 4 -5 0 -10
-5 -10 -11z"/>
<path d="M2125 400 c-3 -5 -1 -10 4 -10 6 0 11 5 11 10 0 6 -2 10 -4 10 -3 0
-8 -4 -11 -10z"/>
<path d="M2350 400 c0 -5 5 -10 10 -10 6 0 10 5 10 10 0 6 -4 10 -10 10 -5 0
-10 -4 -10 -10z"/>
<path d="M2430 390 c0 -5 4 -10 9 -10 6 0 13 5 16 10 3 6 -1 10 -9 10 -9 0
-16 -4 -16 -10z"/>
<path d="M2165 370 c-3 -5 -2 -10 4 -10 5 0 13 5 16 10 3 6 2 10 -4 10 -5 0
-13 -4 -16 -10z"/>
<path d="M2260 370 c0 -5 5 -10 10 -10 6 0 10 5 10 10 0 6 -4 10 -10 10 -5 0
-10 -4 -10 -10z"/>
<path d="M2418 343 c7 -3 16 -2 19 1 4 3 -2 6 -13 5 -11 0 -14 -3 -6 -6z"/>
<path d="M2108 333 c7 -3 16 -2 19 1 4 3 -2 6 -13 5 -11 0 -14 -3 -6 -6z"/>
<path d="M2200 330 c0 -5 5 -10 11 -10 5 0 7 5 4 10 -3 6 -8 10 -11 10 -2 0
-4 -4 -4 -10z"/>
<path d="M2810 479 c0 -5 5 -7 10 -4 6 3 10 8 10 11 0 2 -4 4 -10 4 -5 0 -10
-5 -10 -11z"/>
<path d="M2638 463 c7 -3 16 -2 19 1 4 3 -2 6 -13 5 -11 0 -14 -3 -6 -6z"/>
<path d="M2880 459 c0 -5 5 -7 10 -4 6 3 10 8 10 11 0 2 -4 4 -10 4 -5 0 -10
-5 -10 -11z"/>
<path d="M2698 443 c7 -3 16 -2 19 1 4 3 -2 6 -13 5 -11 0 -14 -3 -6 -6z"/>
<path d="M2770 430 c0 -5 5 -10 10 -10 6 0 10 5 10 10 0 6 -4 10 -10 10 -5 0
-10 -4 -10 -10z"/>
<path d="M2605 420 c-3 -5 1 -10 10 -10 9 0 13 5 10 10 -3 6 -8 10 -10 10 -2
0 -7 -4 -10 -10z"/>
<path d="M2835 420 c-3 -5 1 -10 10 -10 9 0 13 5 10 10 -3 6 -8 10 -10 10 -2
0 -7 -4 -10 -10z"/>
<path d="M2715 400 c-3 -5 -1 -10 4 -10 6 0 11 5 11 10 0 6 -2 10 -4 10 -3 0
-8 -4 -11 -10z"/>
<path d="M2785 370 c-3 -5 1 -10 10 -10 9 0 13 5 10 10 -3 6 -8 10 -10 10 -2
0 -7 -4 -10 -10z"/>
<path d="M2658 363 c7 -3 16 -2 19 1 4 3 -2 6 -13 5 -11 0 -14 -3 -6 -6z"/>
<path d="M2840 350 c0 -5 5 -10 10 -10 6 0 10 5 10 10 0 6 -4 10 -10 10 -5 0
-10 -4 -10 -10z"/>
<path d="M2720 340 c0 -5 5 -10 11 -10 5 0 7 5 4 10 -3 6 -8 10 -11 10 -2 0
-4 -4 -4 -10z"/>
<path d="M1145 440 c3 -5 8 -10 11 -10 2 0 4 5 4 10 0 6 -5 10 -11 10 -5 0 -7
-4 -4 -10z"/>
<path d="M1205 440 c3 -5 8 -10 11 -10 2 0 4 5 4 10 0 6 -5 10 -11 10 -5 0 -7
-4 -4 -10z"/>
<path d="M1055 410 c3 -5 8 -10 11 -10 2 0 4 5 4 10 0 6 -5 10 -11 10 -5 0 -7
-4 -4 -10z"/>
<path d="M995 400 c3 -5 8 -10 11 -10 2 0 4 5 4 10 0 6 -5 10 -11 10 -5 0 -7
-4 -4 -10z"/>
<path d="M1188 393 c7 -3 16 -2 19 1 4 3 -2 6 -13 5 -11 0 -14 -3 -6 -6z"/>
<path d="M1105 380 c3 -5 11 -10 16 -10 6 0 7 5 4 10 -3 6 -11 10 -16 10 -6 0
-7 -4 -4 -10z"/>
<path d="M1190 350 c0 -5 5 -10 11 -10 5 0 7 5 4 10 -3 6 -8 10 -11 10 -2 0
-4 -4 -4 -10z"/>
<path d="M1050 340 c0 -5 5 -10 10 -10 6 0 10 5 10 10 0 6 -4 10 -10 10 -5 0
-10 -4 -10 -10z"/>
<path d="M1250 340 c0 -5 5 -10 11 -10 5 0 7 5 4 10 -3 6 -8 10 -11 10 -2 0
-4 -4 -4 -10z"/>
<path d="M1300 329 c0 -5 5 -7 10 -4 6 3 10 8 10 11 0 2 -4 4 -10 4 -5 0 -10
-5 -10 -11z"/>
<path d="M1115 310 c3 -5 11 -10 16 -10 6 0 7 5 4 10 -3 6 -11 10 -16 10 -6 0
-7 -4 -4 -10z"/>
<path d="M1038 283 c7 -3 16 -2 19 1 4 3 -2 6 -13 5 -11 0 -14 -3 -6 -6z"/>
<path d="M1970 460 c0 -5 4 -10 9 -10 6 0 13 5 16 10 3 6 -1 10 -9 10 -9 0
-16 -4 -16 -10z"/>
<path d="M1898 413 c7 -3 16 -2 19 1 4 3 -2 6 -13 5 -11 0 -14 -3 -6 -6z"/>
<path d="M1797 403 c-4 -3 -7 -11 -7 -17 0 -6 5 -5 12 2 6 6 9 14 7 17 -3 3
-9 2 -12 -2z"/>
<path d="M1875 370 c-3 -5 -1 -10 4 -10 6 0 11 5 11 10 0 6 -2 10 -4 10 -3 0
-8 -4 -11 -10z"/>
<path d="M1978 333 c7 -3 16 -2 19 1 4 3 -2 6 -13 5 -11 0 -14 -3 -6 -6z"/>
</g>
</svg>
